<?xml version="1.0" standalone="no"?>
<!DOCTYPE svg PUBLIC "-//W3C//DTD SVG 20010904//EN"
 "http://www.w3.org/TR/2001/REC-SVG-20010904/DTD/svg10.dtd">
<svg version="1.0" xmlns="http://www.w3.org/2000/svg"
 width="1439.000000pt" height="1439.000000pt" viewBox="0 0 1439.000000 1439.000000"
 preserveAspectRatio="xMidYMid meet">
<metadata>
Created by potrace 1.11, written by Peter Selinger 2001-2013
</metadata>
<g transform="translate(0.000000,1439.000000) scale(0.100000,-0.100000)"
fill="#000000" stroke="none">
<path d="M2160 14000 c-14 -4 -64 -8 -112 -9 -49 -1 -88 -5 -88 -10 0 -5 -28
-11 -62 -14 -35 -3 -83 -10 -108 -17 -25 -6 -60 -14 -78 -17 -18 -3 -35 -9
-38 -14 -3 -5 -21 -9 -40 -9 -19 0 -34 -4 -34 -10 0 -5 -9 -10 -20 -10 -11 0
-29 -4 -40 -10 -11 -5 -29 -14 -40 -20 -11 -5 -29 -10 -40 -10 -11 0 -20 -4
-20 -10 0 -5 -11 -10 -24 -10 -14 0 -28 -4 -31 -10 -3 -5 -15 -10 -26 -10 -10
0 -19 -4 -19 -10 0 -5 -9 -10 -20 -10 -11 0 -20 -4 -20 -10 0 -5 -9 -10 -20
-10 -11 0 -20 -4 -20 -10 0 -5 -9 -10 -20 -10 -11 0 -20 -4 -20 -10 0 -5 -9
-10 -20 -10 -11 0 -20 -4 -20 -10 0 -5 -7 -10 -15 -10 -8 0 -15 -4 -15 -10 0
-5 -7 -10 -15 -10 -8 0 -15 -4 -15 -10 0 -5 -7 -10 -15 -10 -9 0 -25 -9 -37
-20 -12 -11 -28 -20 -35 -20 -7 0 -13 -4 -13 -10 0 -5 -7 -10 -15 -10 -8 0
-15 -4 -15 -10 0 -5 -6 -10 -13 -10 -7 0 -19 -9 -27 -20 -8 -11 -20 -20 -27
-20 -7 0 -13 -4 -13 -10 0 -5 -5 -10 -10 -10 -6 0 -21 -10 -34 -22 -12 -13
-38 -34 -56 -48 -47 -35 -218 -206 -260 -260 -19 -25 -45 -55 -57 -68 -13 -13
-23 -27 -23 -31 0 -5 -13 -23 -30 -41 -16 -18 -30 -36 -30 -40 0 -5 -6 -15
-13 -22 -11 -13 -18 -24 -49 -80 -7 -13 -16 -25 -19 -28 -3 -3 -16 -25 -30
-50 -13 -25 -27 -46 -32 -48 -4 -2 -7 -9 -7 -16 0 -7 -18 -50 -40 -95 -22 -45
-40 -88 -40 -96 0 -8 -4 -15 -10 -15 -5 0 -10 -9 -10 -20 0 -11 -4 -28 -10
-38 -18 -32 -57 -164 -91 -307 -15 -64 -28 -160 -41 -315 -19 -213 -19 -9189
0 -9400 14 -159 25 -243 41 -307 21 -82 31 -123 40 -160 11 -50 30 -102 52
-145 5 -10 9 -25 9 -33 0 -8 4 -23 9 -33 5 -9 17 -35 27 -57 52 -122 158 -315
177 -323 4 -2 7 -8 7 -14 0 -9 57 -98 70 -108 3 -3 17 -21 30 -40 13 -19 31
-42 40 -50 8 -8 36 -40 61 -70 59 -70 129 -140 199 -199 30 -25 62 -53 70 -61
8 -9 31 -27 50 -40 19 -13 37 -27 40 -30 10 -13 99 -70 108 -70 6 0 12 -3 14
-7 8 -19 201 -125 323 -177 22 -10 48 -22 57 -27 10 -5 25 -9 33 -9 8 0 23 -4
33 -9 44 -22 96 -41 147 -53 22 -5 57 -13 78 -18 20 -6 56 -15 80 -21 64 -16
148 -27 307 -41 211 -19 9927 -19 10140 0 155 13 251 26 315 41 143 34 275 73
307 91 10 6 27 10 38 10 11 0 20 5 20 10 0 6 7 10 15 10 8 0 51 18 96 40 45
22 88 40 95 40 7 0 14 3 16 8 2 4 23 18 48 31 25 14 47 27 50 30 3 3 15 12 28
19 56 31 67 38 80 50 7 6 17 12 22 12 4 0 22 14 40 30 18 17 36 30 41 30 4 0
18 10 31 23 13 12 43 38 68 57 54 42 225 213 260 260 14 18 35 44 48 56 12 13
22 28 22 34 0 5 5 10 10 10 6 0 10 6 10 13 0 7 9 19 20 27 11 8 20 20 20 27 0
7 5 13 10 13 6 0 10 7 10 15 0 8 5 15 10 15 6 0 10 6 10 13 0 7 9 23 20 35 11
12 20 28 20 37 0 8 5 15 10 15 6 0 10 7 10 15 0 8 5 15 10 15 6 0 10 7 10 15
0 8 5 15 10 15 6 0 10 9 10 20 0 11 5 20 10 20 6 0 10 9 10 20 0 11 5 20 10
20 6 0 10 9 10 20 0 11 5 20 10 20 6 0 10 9 10 20 0 11 5 20 10 20 6 0 10 9
10 19 0 11 5 23 10 26 6 3 10 17 10 31 0 13 5 24 10 24 6 0 10 9 10 20 0 11 4
29 10 40 6 11 15 29 20 40 6 11 10 29 10 40 0 11 5 20 10 20 6 0 10 15 10 34
0 19 4 37 9 40 5 3 11 20 14 38 3 18 11 53 17 78 7 25 14 73 17 108 3 34 8 62
13 62 4 0 11 48 15 107 10 140 10 9365 0 9503 -4 58 -11 109 -16 115 -5 5 -9
35 -9 66 0 32 -4 61 -10 64 -5 3 -10 21 -10 40 0 19 -4 37 -10 40 -5 3 -10 21
-10 40 0 19 -4 37 -10 40 -5 3 -10 19 -10 35 0 16 -4 32 -10 35 -5 3 -10 17
-10 31 0 13 -4 24 -10 24 -5 0 -10 9 -10 20 0 11 -5 30 -12 43 -24 48 -28 57
-28 77 0 11 -4 20 -10 20 -5 0 -10 9 -10 20 0 11 -4 20 -10 20 -5 0 -10 9 -10
20 0 11 -4 20 -10 20 -5 0 -10 9 -10 20 0 11 -4 20 -10 20 -5 0 -10 6 -10 13
0 18 -24 67 -32 67 -5 0 -8 7 -8 15 0 9 -9 25 -20 37 -11 12 -20 28 -20 35 0
7 -4 13 -9 13 -5 0 -11 8 -14 18 -9 26 -39 72 -70 105 -15 17 -27 34 -27 40 0
5 -8 17 -18 26 -10 9 -29 32 -42 51 -32 45 -275 288 -320 320 -19 13 -42 32
-51 42 -9 10 -21 18 -26 18 -6 0 -23 12 -40 28 -33 30 -79 60 -105 69 -10 3
-18 9 -18 14 0 5 -6 9 -13 9 -7 0 -23 9 -35 20 -12 11 -28 20 -37 20 -8 0 -15
3 -15 8 0 8 -49 32 -67 32 -7 0 -13 5 -13 10 0 6 -9 10 -20 10 -11 0 -20 5
-20 10 0 6 -9 10 -20 10 -11 0 -20 5 -20 10 0 6 -9 10 -20 10 -11 0 -20 5 -20
10 0 6 -9 10 -20 10 -11 0 -29 5 -40 10 -11 6 -29 15 -40 20 -11 6 -29 10 -40
10 -11 0 -20 5 -20 10 0 6 -11 10 -24 10 -14 0 -28 5 -31 10 -3 6 -19 10 -35
10 -16 0 -32 5 -35 10 -3 6 -21 10 -40 10 -19 0 -37 5 -40 10 -3 6 -21 10 -40
10 -19 0 -37 5 -40 10 -3 6 -32 10 -64 10 -31 0 -61 4 -67 9 -5 5 -52 13 -104
16 -140 10 -10131 14 -10160 5z m11040 -6800 l0 -5570 -5990 0 -5990 0 0 5570
0 5570 5990 0 5990 0 0 -5570z"/>
<path d="M1400 12540 c0 -5 24 -10 54 -10 30 0 58 -4 61 -10 3 -5 13 -10 22
-10 17 0 90 -71 111 -107 6 -13 12 -31 12 -41 0 -10 5 -23 11 -29 7 -7 9 -27
6 -50 -14 -89 -20 -113 -28 -113 -5 0 -9 -7 -9 -14 0 -16 -60 -66 -78 -66 -6
0 -31 9 -54 19 -24 11 -52 23 -63 26 -15 6 -16 9 -6 13 21 7 54 42 70 74 10
20 13 50 8 116 -4 67 -2 96 9 117 18 34 13 40 -17 24 -46 -24 -49 -33 -49
-148 0 -127 -2 -132 -79 -208 -41 -41 -51 -57 -42 -66 8 -8 15 -6 27 11 14 21
74 33 74 15 0 -5 12 -14 27 -20 78 -37 178 14 231 115 18 36 22 60 22 132 0
49 -4 92 -10 95 -5 3 -10 13 -10 22 0 22 -88 103 -111 103 -10 0 -21 5 -24 10
-3 6 -42 10 -86 10 -46 0 -79 -4 -79 -10z"/>
<path d="M1950 12540 c0 -5 -11 -10 -25 -10 -14 0 -25 -4 -25 -10 0 -5 -6 -10
-12 -10 -15 0 -68 -44 -68 -56 0 -5 -9 -20 -20 -34 -14 -18 -20 -41 -20 -83 0
-72 28 -107 85 -107 19 0 35 4 35 9 0 5 9 11 20 14 11 3 20 13 20 22 0 12 -5
15 -17 10 -39 -16 -53 -16 -68 -2 -8 9 -15 20 -15 26 0 6 -5 19 -10 29 -8 12
-6 30 8 67 25 70 97 125 165 125 62 0 117 -30 117 -64 0 -9 5 -16 10 -16 6 0
10 -15 10 -34 0 -19 -4 -38 -10 -41 -5 -3 -10 -13 -10 -21 0 -8 -11 -26 -25
-40 l-25 -24 -15 36 c-17 41 -20 104 -5 104 6 0 10 9 10 19 0 11 6 21 13 24 6
2 9 8 5 12 -12 12 -68 -35 -74 -63 -4 -15 -11 -33 -16 -39 -6 -7 -7 -34 -4
-60 4 -27 9 -77 12 -113 5 -64 5 -67 -28 -103 -19 -20 -44 -37 -55 -37 -29 0
-53 31 -53 68 0 32 -11 39 -44 26 -35 -13 -7 -94 32 -94 7 0 12 -4 12 -10 0
-5 20 -10 44 -10 25 0 48 5 51 10 3 6 13 10 21 10 19 0 64 45 64 64 0 8 5 18
10 21 6 3 10 31 10 61 0 30 4 54 8 54 11 0 32 -45 32 -67 0 -18 17 -75 32
-108 10 -22 51 -45 80 -45 27 0 98 38 105 56 11 29 -7 26 -36 -5 -32 -34 -52
-39 -70 -17 -15 18 -51 115 -51 136 0 9 -9 26 -20 38 -26 28 -25 37 8 69 15
16 33 38 40 50 14 27 16 93 2 93 -5 0 -10 9 -10 19 0 31 -77 61 -160 61 -40 0
-70 -4 -70 -10z"/>
<path d="M2495 12534 c-11 -8 -25 -12 -32 -10 -14 6 -83 -62 -83 -81 0 -7 -3
-13 -7 -13 -11 0 -33 -50 -33 -71 0 -10 -4 -21 -10 -24 -5 -3 -10 -33 -10 -65
0 -32 5 -62 10 -65 6 -3 10 -17 10 -31 0 -13 3 -24 8 -24 4 0 13 -13 20 -28
15 -35 82 -72 128 -72 40 0 110 33 137 64 10 12 30 45 43 74 20 44 24 68 24
152 0 55 -4 102 -10 105 -5 3 -10 13 -10 21 0 17 -36 56 -68 73 -29 16 -93 13
-117 -5z m65 -34 c0 -5 6 -10 14 -10 16 0 60 -64 71 -105 15 -55 4 -215 -14
-215 -4 0 -15 -13 -24 -30 -10 -16 -25 -30 -33 -30 -8 0 -14 -4 -14 -10 0 -5
-15 -10 -34 -10 -41 0 -107 59 -131 116 -22 53 -20 161 5 210 l19 39 1 -58 c0
-48 4 -62 25 -82 26 -27 70 -32 96 -12 23 18 40 53 33 71 -8 21 -34 21 -34 0
0 -17 -23 -44 -39 -44 -20 0 -41 45 -41 88 0 31 6 50 23 67 22 24 77 34 77 15z"/>
<path d="M2940 12540 c0 -5 -7 -10 -15 -10 -8 0 -25 -6 -38 -12 -36 -21 -107
-99 -107 -119 0 -10 -4 -21 -10 -24 -26 -16 -2 -101 36 -130 35 -26 98 -13
122 26 11 16 9 19 -8 19 -11 0 -20 -4 -20 -10 0 -19 -37 -10 -58 15 -24 28
-30 92 -11 127 17 32 77 88 94 88 8 0 15 5 15 10 0 6 25 10 56 10 50 0 59 -3
90 -34 30 -30 34 -40 34 -87 0 -59 -20 -95 -55 -101 -18 -3 -20 3 -23 70 -2
47 1 79 9 88 7 8 9 18 5 21 -4 4 -23 -9 -42 -29 l-34 -37 0 -149 c0 -148 0
-150 -26 -176 -15 -14 -36 -26 -47 -26 -25 0 -67 48 -67 78 0 24 -28 30 -48
10 -20 -20 -14 -40 24 -75 29 -26 45 -33 77 -33 45 0 127 42 127 65 0 8 4 15
9 15 11 0 27 75 23 109 -3 23 21 50 47 51 7 0 29 17 47 37 31 33 34 43 34 95
0 49 -4 63 -25 83 -13 14 -31 25 -40 25 -8 0 -15 5 -15 10 0 6 -33 10 -80 10
-47 0 -80 -4 -80 -10z"/>
<path d="M3483 12526 c-23 -11 -47 -32 -54 -46 -6 -14 -15 -33 -20 -42 -9 -18
2 -47 28 -75 26 -29 103 -6 103 31 0 19 -21 21 -38 4 -8 -8 -15 -8 -27 2 -25
21 -17 90 11 90 8 0 14 5 14 10 0 6 27 10 60 10 33 0 60 -4 60 -10 0 -5 -4
-10 -8 -10 -4 0 -14 -21 -21 -46 -13 -42 -12 -52 8 -109 13 -40 21 -87 21
-129 0 -58 -3 -70 -25 -91 -13 -14 -29 -25 -35 -25 -5 0 -10 -4 -10 -10 0 -13
-53 -13 -83 1 -40 18 -89 129 -57 129 6 0 10 7 10 16 0 37 61 59 88 32 7 -7
12 -24 12 -39 0 -21 -7 -31 -30 -41 -16 -7 -30 -16 -30 -20 0 -12 48 -10 55 2
3 6 14 10 24 10 36 0 54 83 24 106 -21 16 -123 19 -123 4 0 -5 -7 -10 -16 -10
-9 0 -27 -12 -40 -27 -33 -39 -34 -120 -1 -150 72 -66 175 -57 253 23 63 65
68 149 13 256 -14 28 -11 108 5 124 8 8 24 14 35 14 25 0 71 20 71 32 0 13
-18 9 -23 -4 -3 -10 -11 -10 -39 0 -54 19 -166 13 -215 -12z"/>
<path d="M3965 12540 c-3 -5 -15 -10 -26 -10 -10 0 -19 -4 -19 -8 0 -5 -12
-15 -27 -23 -30 -15 -83 -66 -83 -79 0 -5 -6 -15 -12 -22 -20 -21 -38 -56 -38
-73 0 -8 -4 -15 -10 -15 -5 0 -10 -16 -10 -35 0 -19 -5 -46 -12 -60 -9 -19 -9
-28 0 -37 7 -7 12 -23 12 -36 0 -14 14 -38 34 -58 50 -50 110 -45 160 13 l19
22 17 -32 c28 -53 98 -47 136 11 22 34 10 39 -21 8 -15 -15 -32 -25 -38 -23
-8 2 -13 35 -15 85 l-3 82 38 37 c66 66 69 67 70 26 1 -43 39 -83 79 -83 27 0
84 34 84 51 0 5 -9 9 -20 9 -11 0 -20 -4 -20 -10 0 -20 -33 -9 -56 18 -25 28
-33 95 -14 107 6 3 10 13 10 22 0 18 55 71 90 86 l25 11 -25 4 c-13 2 -26 -1
-28 -7 -2 -6 -10 -11 -19 -11 -8 0 -32 -18 -53 -40 -21 -22 -41 -40 -44 -40
-3 0 -6 16 -6 36 0 55 -38 84 -112 84 -31 0 -60 -4 -63 -10z m87 -40 c38 -18
66 -108 38 -125 -5 -3 -10 -13 -10 -21 0 -18 -24 -44 -39 -44 -7 0 -11 23 -11
58 0 59 -12 94 -24 73 -9 -14 -46 -15 -46 -1 0 21 -29 9 -64 -26 -29 -29 -36
-43 -36 -75 0 -47 35 -89 75 -89 23 0 25 -3 25 -46 0 -41 -5 -50 -37 -80 -39
-36 -67 -43 -86 -21 -29 31 -37 61 -37 135 0 98 21 147 96 220 47 45 59 52 94
52 21 0 49 -5 62 -10z m-92 -150 c0 -44 -3 -80 -6 -80 -33 0 -49 89 -24 136
23 41 30 27 30 -56z"/>
<path d="M4315 12540 c3 -5 28 -10 56 -10 27 0 49 -3 49 -8 0 -4 10 -12 22
-17 30 -13 58 -91 45 -125 -27 -72 -47 -91 -73 -69 -18 14 -19 122 -2 149 7
10 9 22 5 26 -9 10 -66 -54 -73 -82 -6 -25 0 -118 11 -172 9 -42 -11 -108 -42
-139 -43 -44 -97 -19 -97 43 0 29 -3 34 -24 34 -13 0 -30 -7 -38 -15 -12 -12
-12 -18 -2 -37 40 -70 101 -86 181 -48 50 24 87 91 87 156 0 38 3 42 46 65 26
13 49 30 52 39 3 8 10 18 16 22 6 4 11 34 11 67 0 64 -15 90 -67 117 -31 16
-173 20 -163 4z"/>
<path d="M1309 12488 c-56 -54 -79 -115 -59 -156 32 -63 94 -81 141 -39 28 23
47 77 29 77 -6 0 -23 -13 -37 -30 -45 -54 -87 -29 -87 51 0 46 4 53 48 94 35
34 42 45 28 45 -10 0 -39 -19 -63 -42z"/>
<path d="M6055 11999 c-390 -5 -746 -12 -790 -16 l-80 -8 -3 -755 -2 -755
-369 -1 c-203 -1 -374 -5 -380 -9 -8 -4 -11 -139 -11 -436 l0 -429 -1189 0
-1190 0 -3 -47 c-3 -41 -7 -50 -31 -61 l-27 -13 2 -3547 3 -3547 38 -3 c20 -2
37 -8 37 -14 0 -7 726 -8 2347 -4 1292 3 3607 9 5147 12 2738 6 2799 6 2803
25 4 15 14 19 44 19 l39 0 0 3590 0 3590 -1200 0 -1200 0 0 435 0 435 -107 2
c-60 1 -238 2 -398 3 l-290 0 -3 754 c-2 685 -4 756 -19 773 -15 17 -67 18
-1237 16 -672 -1 -1540 -5 -1931 -9z m2305 -1629 l0 -780 430 0 430 0 0 -389
c0 -269 3 -392 11 -397 6 -3 184 -7 396 -8 299 -1 387 -4 391 -13 3 -10 170
-13 793 -13 l789 0 0 -2779 0 -2778 -2267 -7 c-1248 -3 -3223 -9 -4390 -12
l-2123 -7 0 2802 0 2801 828 2 c455 2 951 3 1102 3 151 0 319 1 373 3 l97 2 0
395 0 395 430 0 430 0 2 773 3 772 185 5 c102 3 614 7 1138 8 l952 2 0 -780z"/>
<path d="M3182 4183 l3 -668 388 -3 387 -2 0 670 0 670 -390 0 -390 0 2 -667z
m738 -3 l0 -630 -350 0 -350 0 0 630 0 630 350 0 350 0 0 -630z"/>
<path d="M4362 4183 l3 -668 388 -3 387 -2 0 670 0 670 -390 0 -390 0 2 -667z
m738 -3 l0 -630 -350 0 -350 0 0 630 0 630 350 0 350 0 0 -630z"/>
<path d="M5542 4183 l3 -668 388 -3 387 -2 0 670 0 670 -390 0 -390 0 2 -667z
m738 -3 l0 -630 -350 0 -350 0 0 630 0 630 350 0 350 0 0 -630z"/>
<path d="M6842 4183 l3 -668 398 -3 397 -2 0 670 0 670 -400 0 -400 0 2 -667z
m758 -3 l0 -630 -360 0 -360 0 0 630 0 630 360 0 360 0 0 -630z"/>
<path d="M8022 4183 l3 -668 388 -3 387 -2 0 670 0 670 -390 0 -390 0 2 -667z
m738 -3 l0 -630 -350 0 -350 0 0 630 0 630 350 0 350 0 0 -630z"/>
<path d="M9182 4183 l3 -668 398 -3 397 -2 0 670 0 670 -400 0 -400 0 2 -667z
m758 -3 l0 -630 -360 0 -360 0 0 630 0 630 360 0 360 0 0 -630z"/>
<path d="M10402 4183 l3 -668 398 -3 397 -2 0 670 0 670 -400 0 -400 0 2 -667z
m758 -3 l0 -630 -360 0 -360 0 0 630 0 630 360 0 360 0 0 -630z"/>
<path d="M5725 2277 c-28 -17 -97 -87 -112 -114 -17 -30 -17 -141 0 -157 23
-23 55 -36 91 -36 20 0 36 5 36 10 0 6 7 10 15 10 22 0 58 39 72 78 9 26 9 40
0 60 -15 34 -25 42 -57 42 -30 0 -50 -17 -50 -42 0 -19 15 -24 25 -8 11 17 31
11 42 -12 11 -26 -10 -78 -33 -78 -8 0 -14 -4 -14 -10 0 -14 -42 -12 -61 3
-38 29 -51 96 -27 140 6 12 27 37 47 55 55 50 123 43 178 -18 13 -14 23 -31
23 -37 0 -7 5 -13 10 -13 6 0 10 -43 10 -110 0 -67 -4 -110 -10 -110 -5 0 -10
-7 -10 -16 0 -9 -20 -36 -44 -60 -33 -34 -51 -44 -75 -44 -35 0 -61 19 -61 44
0 24 -43 25 -66 1 -11 -10 -10 -15 4 -26 74 -60 161 -50 237 26 66 65 85 120
85 240 0 88 1 95 20 95 19 0 20 -7 20 -195 0 -107 4 -195 8 -195 5 0 16 6 25
13 14 10 17 37 18 207 0 107 -2 203 -6 213 -10 24 -61 23 -77 -3 -17 -27 -41
-25 -53 3 -6 12 -20 26 -32 32 -13 5 -23 13 -23 17 0 13 -133 8 -155 -5z"/>
<path d="M7870 2280 c0 -5 15 -10 33 -10 51 0 77 -24 77 -71 0 -42 -17 -69
-44 -69 -16 0 -21 21 -17 73 3 33 -3 34 -34 2 -65 -64 7 -124 90 -76 56 33 72
104 33 141 -17 15 -35 20 -80 20 -32 0 -58 -4 -58 -10z"/>
<path d="M7783 2226 c-24 -24 -43 -51 -43 -60 0 -9 -4 -16 -10 -16 -5 0 -10
-25 -10 -55 0 -60 15 -86 62 -111 31 -16 98 -19 98 -4 0 6 -11 10 -24 10 -42
0 -76 56 -76 123 0 32 5 57 10 57 6 0 10 7 10 16 0 9 14 29 30 44 34 32 37 40
13 40 -10 0 -37 -20 -60 -44z"/>
<path d="M6140 2231 c0 -17 6 -21 30 -21 27 0 41 -13 23 -22 -11 -4 -53 -87
-53 -104 0 -8 -4 -14 -10 -14 -5 0 -10 -13 -10 -29 0 -17 -4 -33 -10 -36 -14
-9 -12 -121 3 -147 28 -51 55 -68 102 -68 25 0 45 5 45 10 0 6 9 10 20 10 11
0 20 5 20 10 0 6 9 10 20 10 13 0 20 -7 20 -20 0 -16 7 -20 30 -20 17 0 30 5
30 10 0 6 7 10 15 10 8 0 19 9 25 20 11 20 12 20 40 -10 28 -30 82 -42 95 -20
3 6 13 10 21 10 18 0 37 17 49 45 8 18 9 17 13 -10 5 -39 15 -49 41 -40 17 5
21 15 21 46 0 21 5 39 10 39 6 0 10 9 10 19 0 11 -4 23 -10 26 -5 3 -10 17
-10 31 0 13 5 24 10 24 6 0 10 9 10 20 0 11 4 20 8 20 5 0 19 24 31 53 13 28
27 60 32 69 22 43 -1 78 -51 78 -66 0 -100 -70 -100 -208 0 -55 -4 -92 -10
-92 -5 0 -10 -9 -10 -20 0 -11 -4 -20 -10 -20 -5 0 -10 -7 -10 -15 0 -18 -44
-65 -60 -65 -17 0 -40 26 -40 44 0 9 -4 16 -10 16 -5 0 -10 9 -10 20 0 11 4
20 9 20 5 0 11 9 14 20 6 23 37 26 67 8 22 -14 35 -6 27 17 -8 18 -78 21 -110
3 -30 -15 -67 -59 -67 -79 0 -20 -38 -61 -51 -54 -5 4 -9 37 -9 76 0 38 -3 69
-7 69 -27 -1 -73 -64 -73 -99 0 -22 -44 -61 -69 -61 -19 0 -40 20 -60 61 -18
36 -2 221 20 235 5 3 9 14 9 25 0 10 5 19 10 19 6 0 10 6 10 13 0 6 14 28 30
47 25 29 27 36 14 38 -9 2 -20 -2 -24 -8 -8 -13 -48 -10 -82 5 -14 5 -18 2
-18 -14z m620 -75 c0 -30 -4 -58 -10 -61 -5 -3 -10 -15 -10 -26 0 -10 -4 -19
-10 -19 -14 0 -13 103 2 135 18 40 28 30 28 -29z"/>
<path d="M7439 2217 c-43 -32 -59 -84 -59 -187 0 -60 -4 -100 -10 -100 -5 0
-10 -9 -10 -20 0 -11 -4 -20 -10 -20 -5 0 -10 -7 -10 -15 0 -20 -44 -65 -63
-65 -14 0 -44 28 -36 33 2 1 15 8 29 15 28 14 50 54 50 89 0 20 -5 23 -36 23
-57 0 -106 -37 -146 -109 -27 -49 -38 -38 -38 37 l0 68 -55 2 c-76 3 -135 -34
-157 -101 -6 -17 -16 -35 -22 -39 -6 -4 -7 -10 -3 -15 5 -4 11 -3 15 3 12 17
42 25 42 10 0 -22 43 -35 117 -34 53 1 77 5 90 17 24 23 53 33 53 19 0 -34 88
-51 133 -25 27 15 57 46 58 61 1 6 4 -4 8 -23 8 -46 31 -59 68 -41 38 20 53
35 53 54 0 22 -13 20 -28 -4 -7 -11 -17 -20 -22 -20 -12 0 -14 157 -2 162 9 4
41 57 49 81 3 9 9 17 14 17 5 0 9 9 9 19 0 11 5 23 10 26 17 10 12 82 -6 89
-26 10 -68 6 -85 -7z m59 -50 c2 -21 -1 -37 -7 -37 -6 0 -11 -9 -11 -19 0 -11
-4 -23 -10 -26 -5 -3 -10 -15 -10 -26 0 -11 -4 -17 -10 -14 -14 9 -13 108 2
140 17 38 42 28 46 -18z m-458 -271 c0 -59 -20 -80 -48 -52 -31 31 -9 105 31
106 14 0 17 -9 17 -54z m227 43 c8 -8 7 -19 -4 -40 -25 -49 -54 -30 -31 21 14
33 19 35 35 19z"/>
<path d="M8419 2217 c-43 -32 -59 -84 -59 -187 0 -60 -4 -100 -10 -100 -5 0
-10 -9 -10 -20 0 -11 -4 -20 -10 -20 -5 0 -10 -7 -10 -16 0 -18 -23 -44 -39
-44 -7 0 -11 23 -11 58 0 31 -4 62 -8 67 -4 6 -30 12 -58 13 -49 3 -54 0 -100
-43 -31 -29 -44 -48 -36 -51 6 -3 12 -12 12 -20 0 -30 42 -64 81 -64 21 0 40
6 43 13 5 10 7 10 12 0 6 -14 64 -18 64 -5 0 4 10 12 23 17 12 6 26 20 32 33
14 31 23 28 27 -9 4 -43 26 -56 66 -38 18 8 32 17 32 21 0 16 36 7 50 -12 11
-16 26 -20 67 -20 28 0 55 5 58 10 3 6 14 10 23 10 10 0 24 9 32 20 17 23 30
26 30 6 0 -22 40 -46 78 -46 46 0 74 15 111 63 24 30 -10 21 -46 -13 -18 -17
-39 -30 -47 -30 -26 0 -18 30 14 60 23 21 30 37 30 64 0 35 -1 36 -35 36 -19
0 -45 -6 -57 -12 -25 -15 -67 -59 -68 -72 0 -9 -39 -46 -48 -46 -2 0 2 10 11
23 20 31 30 97 22 151 -6 34 -17 56 -43 82 -30 30 -40 35 -76 32 -33 -2 -41
-7 -41 -23 0 -16 6 -19 28 -17 36 5 87 -47 87 -89 0 -27 -3 -29 -36 -29 -19 0
-45 -5 -56 -11 -31 -16 -88 -76 -88 -92 0 -14 -19 -37 -32 -37 -10 0 -11 157
0 162 9 4 41 57 49 81 3 9 9 17 14 17 5 0 9 9 9 19 0 11 5 23 10 26 17 10 12
82 -6 89 -26 10 -68 6 -85 -7z m59 -50 c2 -21 -1 -37 -7 -37 -6 0 -11 -9 -11
-19 0 -11 -4 -23 -10 -26 -5 -3 -10 -15 -10 -26 0 -11 -4 -17 -10 -14 -14 9
-13 108 2 140 17 38 42 28 46 -18z m-260 -265 c5 -62 -34 -94 -64 -54 -29 37
-2 106 39 100 18 -2 23 -11 25 -46z m408 34 c17 -18 18 -50 2 -79 -26 -49 -52
-59 -74 -29 -20 26 -16 64 9 94 25 31 42 35 63 14z m194 -8 c-1 -29 -25 -62
-39 -53 -14 8 -14 17 -1 49 12 32 40 35 40 4z"/>
<path d="M7980 2060 c-18 -16 -36 -30 -41 -30 -5 0 -9 -4 -9 -10 0 -5 7 -10
15 -10 12 0 15 -14 15 -66 0 -62 -2 -68 -34 -100 -24 -24 -43 -34 -65 -34 -39
0 -81 39 -81 75 0 19 -5 25 -22 25 -29 -1 -67 -28 -53 -38 6 -4 15 -16 21 -27
15 -28 72 -54 118 -55 55 0 105 19 144 56 29 29 32 37 32 93 0 34 -6 70 -12
81 -9 14 -10 23 -3 28 6 4 16 15 24 25 24 30 -13 21 -49 -13z"/>
<path d="M6351 2054 c-11 -13 -10 -17 5 -28 15 -11 20 -11 32 0 11 12 11 16
-2 29 -18 18 -18 18 -35 -1z"/>
<path d="M7900 2000 c0 -5 5 -10 10 -10 6 0 10 5 10 10 0 6 -4 10 -10 10 -5 0
-10 -4 -10 -10z"/>
<path d="M6751 1954 c-7 -8 -10 -18 -6 -22 4 -4 10 -1 12 6 11 30 23 8 23 -43
0 -73 16 -107 49 -103 18 2 25 8 22 18 -3 8 -7 42 -9 75 -2 33 -9 66 -14 73
-14 17 -60 15 -77 -4z"/>
</g>
</svg>
