<?xml version="1.0" standalone="no"?>
<!DOCTYPE svg PUBLIC "-//W3C//DTD SVG 20010904//EN"
 "http://www.w3.org/TR/2001/REC-SVG-20010904/DTD/svg10.dtd">
<svg version="1.0" xmlns="http://www.w3.org/2000/svg"
 width="512.000000pt" height="512.000000pt" viewBox="0 0 512.000000 512.000000"
 preserveAspectRatio="xMidYMid meet">
<metadata>
Created by potrace 1.11, written by Peter Selinger 2001-2013
</metadata>
<g transform="translate(0.000000,512.000000) scale(0.100000,-0.100000)"
fill="#000000" stroke="none">
<path d="M549 4723 c-129 -33 -224 -121 -271 -250 l-21 -58 -1 -1840 c-1
-2036 -5 -1907 63 -2014 43 -66 113 -123 188 -151 48 -19 81 -23 190 -24 73
-1 135 -5 139 -8 4 -4 14 -4 23 0 20 10 767 9 777 0 4 -4 14 -4 23 0 9 5 653
8 1431 7 778 -1 1435 2 1459 7 157 29 285 161 308 318 5 30 8 874 7 1875 -1
2046 6 1879 -77 1991 -49 66 -99 105 -178 136 l-54 22 -1978 1 c-1572 1 -1988
-2 -2028 -12z m3558 -373 l373 0 0 -1790 0 -1790 -1920 0 -1920 0 0 1790 0
1790 228 2 c125 2 821 2 1547 1 726 -2 1488 -3 1692 -3z"/>
<path d="M1920 3840 l0 -256 -127 0 -128 1 -1 -115 c-1 -63 -2 -121 -3 -127
-1 -10 -84 -13 -381 -13 -297 0 -380 -3 -381 -12 -1 -7 -2 -526 -3 -1153 l-1
-1141 1665 1 1665 0 0 1150 0 1150 -384 5 -385 5 -1 125 -1 125 -127 0 -127
-1 0 256 0 256 -640 0 -640 0 0 -256z m1024 -257 l0 -253 128 0 128 0 0 -130
0 -131 148 1 c81 1 253 1 384 1 l236 -1 1 -390 c1 -310 -1 -390 -11 -390 -10
0 -10 -2 -1 -8 8 -5 11 -136 12 -505 l0 -497 -1409 0 -1410 0 1 895 0 895 47
0 c26 0 199 1 385 1 l337 0 0 129 0 129 128 3 127 3 0 253 0 252 385 -2 384
-3 0 -252z"/>
<path d="M1280 1603 l0 -192 98 -3 c53 -2 111 -2 128 0 l30 3 0 189 0 189
-128 3 -128 3 0 -192z"/>
<path d="M1700 1790 l-35 -5 0 -190 0 -189 23 1 c12 0 69 1 127 2 l105 1 0
190 c0 145 -3 190 -12 190 -107 4 -180 4 -208 0z"/>
<path d="M2054 1788 c-6 -10 -6 -370 1 -376 3 -3 55 -5 117 -3 83 2 113 -1
119 -11 11 -17 11 -23 13 205 0 118 -3 187 -9 188 -69 4 -238 2 -241 -3z"/>
<path d="M2458 1792 l-28 -3 0 -190 0 -189 120 0 c66 0 123 -1 128 -2 4 -2 8
84 10 190 l3 192 -33 0 c-18 1 -64 2 -103 3 -38 1 -82 1 -97 -1z"/>
<path d="M2844 1790 l-29 -5 0 -188 0 -188 128 3 128 3 0 95 c1 52 0 136 0
187 l-1 92 -99 3 c-54 2 -112 1 -127 -2z"/>
<path d="M3228 1792 l-28 -3 0 -190 0 -189 120 0 c66 0 123 1 127 3 5 1 8 86
9 190 l0 187 -55 1 c-31 0 -76 1 -101 2 -25 1 -57 1 -72 -1z"/>
<path d="M3660 1790 l-75 -5 0 -185 0 -185 128 -3 127 -3 0 191 c0 104 -3 190
-7 191 -44 3 -111 3 -173 -1z"/>
</g>
</svg>
